<svg xmlns="http://www.w3.org/2000/svg" width="21" height="22" viewBox="0 0 21 22"><g><g><path fill="#222" d="M1.058 2.851C.2 2.121 1.5-.032 2.299.648c.608.517 1.208 1.042 1.808 1.569a230.312 230.312 0 0 1 6.867 6.262c2.611-2.591 5.346-5.062 8.074-7.467.381-.336.98-.384 1.18.17.207.58-.18 1.287-.6 1.656-.615.543-1.223 1.094-1.83 1.647a200.306 200.306 0 0 0-5.541 5.227l.407.397c2.824 2.76 5.758 5.614 7.963 8.935.586.883-.916 2.888-1.568 1.905-1.138-1.713-2.504-3.265-3.89-4.768a126.25 126.25 0 0 0-4.63-4.75c-.318.323-.634.648-.948.975-1.417 1.474-2.809 2.982-4.093 4.581-.509.632-1.027 1.311-1.393 1.882-.18.281-.35.569-.508.863-.034.063-.173.368-.126.253a6.41 6.41 0 0 0-.113.293c-.164.465-.678 1.17-1.251 1.066-.578-.103-.586-.826-.426-1.278.616-1.736 1.819-3.259 2.96-4.66a83.087 83.087 0 0 1 4.628-5.198C6.604 7.669 3.847 5.226 1.058 2.85zm2.433 17.085l.01-.02a5.466 5.466 0 0 0-.01.02z"/></g></g></svg>